<svg id="Layer_1" data-name="Layer 1" xmlns="http://www.w3.org/2000/svg" viewBox="0 0 35 35"><defs><style>.cls-1{fill:#ca1f40;}</style></defs><path class="cls-1" d="M8.71,25.53h19a5.48,5.48,0,1,1-5.31,6.4,5.42,5.42,0,0,1-.07-1.14c0-.37.08-.74.13-1.13H16c0,.53.1,1.07.08,1.6a5.4,5.4,0,0,1-4.17,5.08,5.47,5.47,0,0,1-6.7-4.5,5.37,5.37,0,0,1,.28-2.75.28.28,0,0,0-.08-.39,3.75,3.75,0,0,1-.1-5.57c1-1,1.93-1.94,2.91-2.9a.43.43,0,0,0,.13-.45c-.52-2.56-1-5.13-1.54-7.69L5.56,6c0-.11,0-.22-.08-.36H3.74A2.1,2.1,0,0,1,2.67,5.3,2.08,2.08,0,0,1,1.75,3,2,2,0,0,1,3.64,1.51c1.2,0,2.41,0,3.61,0A2,2,0,0,1,9.16,3.1c.13.6.25,1.2.38,1.83H34.47a2.08,2.08,0,0,1,2.07,1.29,2,2,0,0,1-.07,1.67Q33,14.76,29.61,21.62a1.93,1.93,0,0,1-1.19,1,2.91,2.91,0,0,1-.83.11H11.78a.7.7,0,0,0-.55.22l-2.29,2.3ZM31.3,9.05H10.37a.28.28,0,0,0,0,.1c.61,3.07,1.23,6.13,1.83,9.21,0,.27.16.32.41.32H26.18a.45.45,0,0,0,.47-.3l4.51-9A2.87,2.87,0,0,0,31.3,9.05ZM10.6,29.64A1.38,1.38,0,0,0,9.21,31,1.39,1.39,0,1,0,12,31,1.37,1.37,0,0,0,10.6,29.64Zm17.18,0A1.36,1.36,0,0,0,26.39,31a1.38,1.38,0,1,0,2.76,0A1.36,1.36,0,0,0,27.78,29.64Z" transform="translate(-1.69 -1.5)"/></svg>