<svg id="Layer_1" data-name="Layer 1" xmlns="http://www.w3.org/2000/svg" viewBox="0 0 36 32"><defs><style>.cls-1{fill:#d11f44;}</style></defs><path class="cls-1" d="M37,12.78a11.63,11.63,0,0,1-3.44,8.67c-3.91,4-7.8,8-11.71,11.93-1.82,1.86-3.61,1.86-5.42,0Q10.22,27.09,4.05,20.77c-5-5.13-3.27-12.1,1-15.62a10.12,10.12,0,0,1,13.19.14,1,1,0,0,0,1.61,0A10.27,10.27,0,0,1,35.46,7.9,9.65,9.65,0,0,1,37,12.78Zm-3.9.89a6.31,6.31,0,0,0-3.74-6.34,6.33,6.33,0,0,0-6.88.78,17.18,17.18,0,0,0-1.65,1.54C19.48,11,18.6,11,17.25,9.61L16.17,8.52A6.59,6.59,0,0,0,7.77,8c-3.11,2.43-4.09,7.1-.88,10.29,3.93,3.91,7.78,7.9,11.65,11.87.48.49.77.39,1.17-.05,1-1.1,2.08-2.18,3.13-3.25,2.8-2.87,5.62-5.72,8.42-8.59A6,6,0,0,0,33.1,13.67Z" transform="translate(-1 -2.78)"/></svg>